<svg width="35" height="35" viewBox="0 0 35 35" fill="none" xmlns="http://www.w3.org/2000/svg">
<g clip-path="url(#clip0_103:1754)">
<path d="M33.8553 26.986C34.6149 25.3841 34.9997 23.6659 34.9997 21.8733C34.9997 15.4743 29.9205 10.233 23.5602 9.92524C22.1269 4.76218 17.4186 1.16089 12.0315 1.16089C5.39758 1.16089 0.000526795 6.52732 0.000526795 13.1235C0.000526795 14.9161 0.385381 16.6343 1.14497 18.2363L0.0204189 23.8597C-0.122722 24.5755 0.508767 25.2083 1.22475 25.0666L6.91751 23.9411C8.34359 24.6176 9.86059 24.9956 11.4407 25.071C13.4332 32.2452 21.4358 35.8437 28.0826 32.6909C34.3173 33.9235 33.8311 33.8359 33.9743 33.8359C34.6222 33.8359 35.1063 33.2422 34.9797 32.6095L33.8553 26.986ZM7.5259 21.9549C7.32076 21.8501 7.08615 21.8173 6.8603 21.862L2.33228 22.7573L3.22428 18.297C3.2696 18.0703 3.23706 17.8349 3.13172 17.6291C2.41486 16.2267 2.05126 14.7108 2.05126 13.1235C2.05126 7.65809 6.52835 3.21162 12.0315 3.21162C16.3322 3.21162 20.1195 6.00814 21.4431 10.0075C15.1742 10.809 10.4528 16.4654 11.0586 22.9881C9.82299 22.8693 8.63931 22.5241 7.5259 21.9549ZM31.776 27.0468L32.668 31.5071L28.14 30.6118C27.914 30.5672 27.6795 30.5998 27.4744 30.7047C26.072 31.4216 24.5561 31.7852 22.9688 31.7852C17.5034 31.7852 13.0569 27.3387 13.0569 21.8733C13.0569 16.4079 17.5034 11.9614 22.9688 11.9614C28.4719 11.9614 32.949 16.4079 32.949 21.8733C32.949 23.4606 32.5855 24.9765 31.8686 26.3789C31.7632 26.5847 31.7307 26.8201 31.776 27.0468Z" fill="#3AD88F"/>
</g>
<defs>
<clipPath id="clip0_103:1754">
<rect width="35" height="35" fill="white"/>
</clipPath>
</defs>
</svg>
