<svg width="15" height="15" viewBox="0 0 15 15" fill="none" xmlns="http://www.w3.org/2000/svg">
<g clip-path="url(#clip0)">
<path d="M0.972147 15.0121C0.723371 15.0121 0.474418 14.9169 0.285078 14.7274C-0.0950259 14.3475 -0.0950259 13.7332 0.285078 13.3533L13.3408 0.297395C13.7207 -0.0825301 14.335 -0.0825301 14.715 0.297395C15.0951 0.67732 15.0951 1.29161 14.715 1.67153L1.65922 14.7274C1.46863 14.9178 1.22092 15.0121 0.972147 15.0121Z" fill="#F44336"/>
<path d="M14.0279 15.0121C13.7791 15.0121 13.5303 14.9169 13.3408 14.7274L0.285078 1.67153C-0.0950259 1.29161 -0.0950259 0.67732 0.285078 0.297395C0.665003 -0.0825301 1.27911 -0.0825301 1.65922 0.297395L14.715 13.3533C15.0951 13.7332 15.0951 14.3475 14.715 14.7274C14.5254 14.9178 14.2767 15.0121 14.0279 15.0121Z" fill="#F44336"/>
</g>
<defs>
<clipPath id="clip0">
<rect width="15" height="15" fill="white"/>
</clipPath>
</defs>
</svg>
