<svg width="21" height="21" viewBox="0 0 21 21" fill="none" xmlns="http://www.w3.org/2000/svg">
<g clip-path="url(#clip0)">
<path d="M19.9231 3.5H1.07695C0.4846 3.5 0 3.9846 0 4.57691V16.4231C0 17.0153 0.4846 17.5 1.07695 17.5H19.9231C20.5154 17.5 21 17.0154 21 16.4231V4.57691C21 3.9846 20.5154 3.5 19.9231 3.5ZM19.5189 4.30764L11.1195 10.6077C10.9685 10.7226 10.7367 10.7945 10.5 10.7935C10.2633 10.7945 10.0315 10.7226 9.88046 10.6077L1.48103 4.30764H19.5189ZM15.0322 11.0234L19.6092 16.6773C19.6138 16.683 19.6194 16.6873 19.6243 16.6924H1.37575C1.38059 16.687 1.38625 16.683 1.39084 16.6773L5.96777 11.0234C6.10801 10.85 6.08143 10.5959 5.90773 10.4553C5.73435 10.3151 5.48018 10.3417 5.33991 10.5151L0.80768 16.1137V4.81246L9.39611 11.2538C9.71894 11.4942 10.1117 11.6001 10.4999 11.6011C10.8876 11.6003 11.2807 11.4945 11.6037 11.2538L20.1922 4.81246V16.1137L15.6601 10.5151C15.5198 10.3417 15.2654 10.315 15.0922 10.4553C14.9186 10.5955 14.8919 10.85 15.0322 11.0234Z" fill="#3AD88F"/>
</g>
<defs>
<clipPath id="clip0">
<rect width="21" height="21" fill="white"/>
</clipPath>
</defs>
</svg>
