<svg width="19" height="19" viewBox="0 0 19 19" fill="none" xmlns="http://www.w3.org/2000/svg">
<path d="M16.8496 6.55172L12.1385 5.86705L10.0326 1.59761C9.97503 1.48072 9.8804 1.38609 9.76351 1.32857C9.47035 1.18384 9.1141 1.30445 8.96751 1.59761L6.86155 5.86705L2.15052 6.55172C2.02063 6.57027 1.90188 6.6315 1.81096 6.72427C1.70105 6.83725 1.64048 6.98924 1.64257 7.14684C1.64466 7.30445 1.70923 7.45478 1.8221 7.5648L5.2306 10.8879L4.42532 15.5804C4.40644 15.6896 4.41852 15.8018 4.46019 15.9045C4.50186 16.0071 4.57146 16.096 4.66109 16.1611C4.75073 16.2262 4.85681 16.2649 4.9673 16.2728C5.0778 16.2807 5.1883 16.2574 5.28626 16.2057L9.50003 13.9903L13.7138 16.2057C13.8288 16.2669 13.9624 16.2874 14.0905 16.2651C14.4133 16.2094 14.6304 15.9033 14.5747 15.5804L13.7695 10.8879L17.178 7.5648C17.2707 7.47388 17.332 7.35513 17.3505 7.22525C17.4006 6.90054 17.1743 6.59996 16.8496 6.55172Z" fill="#3AD88F"/>
</svg>
