<svg width="19" height="19" viewBox="0 0 19 19" fill="none" xmlns="http://www.w3.org/2000/svg">
<path d="M16.8495 6.55172L12.1385 5.86705L10.0325 1.59761C9.97503 1.48072 9.8804 1.38609 9.7635 1.32857C9.47034 1.18384 9.11409 1.30445 8.96751 1.59761L6.86155 5.86705L2.15052 6.55172C2.02063 6.57027 1.90188 6.6315 1.81096 6.72427C1.70105 6.83725 1.64048 6.98924 1.64257 7.14684C1.64466 7.30445 1.70923 7.45478 1.8221 7.5648L5.23059 10.8879L4.42532 15.5804C4.40644 15.6896 4.41852 15.8018 4.46019 15.9045C4.50186 16.0071 4.57146 16.096 4.66109 16.1611C4.75072 16.2262 4.8568 16.2649 4.9673 16.2728C5.0778 16.2807 5.1883 16.2574 5.28626 16.2057L9.50003 13.9903L13.7138 16.2057C13.8288 16.2669 13.9624 16.2874 14.0905 16.2651C14.4133 16.2094 14.6304 15.9033 14.5747 15.5804L13.7695 10.8879L17.178 7.5648C17.2707 7.47388 17.332 7.35513 17.3505 7.22525C17.4006 6.90054 17.1742 6.59996 16.8495 6.55172ZM12.3352 10.4204L13.005 14.3224L9.50003 12.4818L5.99505 14.3243L6.66487 10.4222L3.82971 7.65758L7.74847 7.08795L9.50003 3.53843L11.2516 7.08795L15.1703 7.65758L12.3352 10.4204Z" fill="#3AD88F"/>
</svg>
