<svg width="46" height="46" viewBox="0 0 46 46" fill="none" xmlns="http://www.w3.org/2000/svg">
<g clip-path="url(#clip0)">
<path d="M46 22.9994C46 21.9059 45.4201 20.9094 44.4461 20.3315L41.8847 18.8246C42.8715 18.2387 43.7507 17.7161 44.4482 17.3011C45.4202 16.7212 46 15.7247 46 14.6353C46 13.5459 45.4201 12.5494 44.4482 11.9684C41.2464 10.0642 30.3896 3.61242 25.0378 0.544373C23.7984 -0.167288 22.2914 -0.195809 20.9519 0.550548C20.9519 0.550548 6.39721 9.0995 1.55378 11.9675C0.579934 12.5453 0 13.5418 0 14.6353C0 15.7247 0.579934 16.7212 1.55182 17.3022C2.24917 17.7169 3.12833 18.2394 4.11481 18.825L1.55387 20.3315C0.579934 20.9094 0 21.9059 0 22.9994C0 24.0888 0.579934 25.0853 1.55182 25.6663C2.24917 26.081 3.12833 26.6035 4.11481 27.1891L1.55387 28.6956C0.579934 29.2735 0 30.27 0 31.3635C0 32.4529 0.579934 33.4494 1.55182 34.0304C5.69486 36.494 15.8779 42.5394 20.9622 45.4544C21.585 45.8117 22.2915 46.0006 23 46.0006C23.7086 46.0006 24.4151 45.8117 25.04 45.4533C30.1222 42.5393 40.3052 36.494 44.4483 34.0293C45.4203 33.4494 46.0001 32.4529 46.0001 31.3635C46.0001 30.27 45.4202 29.2735 44.4462 28.6956L41.8848 27.1887C42.8716 26.6028 43.7508 26.0802 44.4483 25.6652C45.4202 25.0853 46 24.0888 46 22.9994ZM2.62181 15.5079C2.46254 15.4119 2.09088 15.1362 2.09088 14.637C2.09088 14.1357 2.46048 13.8622 2.61975 13.7682C7.457 10.9034 21.9913 2.36719 21.9893 2.36817C22.655 1.99347 23.3818 2.00778 23.9985 2.36101C29.336 5.42083 40.1826 11.8651 43.3782 13.7661C43.5375 13.8621 43.9091 14.1378 43.9091 14.6369C43.9091 15.1361 43.5375 15.4118 43.3782 15.5068C39.2413 17.9673 29.0706 24.0063 24.0005 26.9119C23.3716 27.2713 22.6263 27.2702 22.0015 26.9129C16.9294 24.0063 6.75867 17.9674 2.62181 15.5079ZM43.3803 30.4954C43.5395 30.5893 43.9091 30.8629 43.9091 31.3643C43.9091 31.8635 43.5375 32.1391 43.3782 32.2341C39.2413 34.6946 29.0706 40.7336 24.0005 43.6392C23.3716 43.9986 22.6263 43.9975 22.0015 43.6402C16.9294 40.7336 6.75867 34.6946 2.62181 32.2351C2.46254 32.1391 2.09088 31.8634 2.09088 31.3643C2.09088 30.8629 2.46048 30.5894 2.61975 30.4954L6.16766 28.4076C10.9632 31.2501 17.289 34.9849 20.9622 37.0907C21.585 37.448 22.2915 37.6369 23 37.6369C23.7086 37.6369 24.4151 37.448 25.04 37.0897C28.7116 34.9846 35.0368 31.2504 39.8321 28.4076L43.3803 30.4954ZM43.3782 23.8705C39.2413 26.331 29.0706 32.37 24.0005 35.2756C23.3716 35.635 22.6263 35.6339 22.0015 35.2766C16.9294 32.3699 6.75867 26.331 2.62181 23.8715C2.46254 23.7755 2.09088 23.4998 2.09088 23.0007C2.09088 22.4993 2.46048 22.2258 2.61975 22.1318L6.16766 20.044C10.9632 22.8865 17.289 26.6213 20.9622 28.7271C21.585 29.0844 22.2915 29.2733 23 29.2733C23.7086 29.2733 24.4151 29.0844 25.04 28.7261C28.7116 26.621 35.0368 22.8868 39.8321 20.0439L43.3804 22.1318C43.5396 22.2257 43.9092 22.4993 43.9092 23.0007C43.9091 23.4998 43.5375 23.7755 43.3782 23.8705Z" fill="#202020"/>
</g>
<defs>
<clipPath id="clip0">
<rect width="46" height="46" fill="white"/>
</clipPath>
</defs>
</svg>
