<svg width="42" height="42" viewBox="0 0 42 42" fill="none" xmlns="http://www.w3.org/2000/svg">
<path d="M21 42C15.3907 42 10.1171 39.8157 6.1507 35.8493C2.18433 31.8829 0 26.6093 0 21C0 15.3907 2.18441 10.1172 6.1507 6.1507C10.117 2.18425 15.3907 0 21 0C26.6093 0 31.8829 2.18433 35.8493 6.1507C39.8157 10.1171 42 15.3907 42 21C42 26.6093 39.8156 31.8828 35.8493 35.8493C31.883 39.8158 26.6093 42 21 42ZM21 2.625C10.868 2.625 2.625 10.868 2.625 21C2.625 31.132 10.868 39.375 21 39.375C31.132 39.375 39.375 31.132 39.375 21C39.375 10.868 31.132 2.625 21 2.625Z" fill="#202020"/>
<path d="M21 19.6875C19.1907 19.6875 17.7188 18.2155 17.7188 16.4062C17.7188 14.597 19.1907 13.125 21 13.125C22.8093 13.125 24.2812 14.597 24.2812 16.4062C24.2812 17.1311 24.8688 17.7188 25.5938 17.7188C26.3187 17.7188 26.9062 17.1311 26.9062 16.4062C26.9062 13.6007 24.9393 11.2475 22.3125 10.6488V9.1875C22.3125 8.46267 21.7249 7.875 21 7.875C20.2751 7.875 19.6875 8.46267 19.6875 9.1875V10.6488C17.0607 11.2475 15.0938 13.6007 15.0938 16.4062C15.0938 19.663 17.7433 22.3125 21 22.3125C22.8093 22.3125 24.2812 23.7845 24.2812 25.5938C24.2812 27.403 22.8093 28.875 21 28.875C19.1907 28.875 17.7188 27.403 17.7188 25.5938C17.7188 24.8689 17.1312 24.2812 16.4062 24.2812C15.6813 24.2812 15.0938 24.8689 15.0938 25.5938C15.0938 28.3993 17.0607 30.7525 19.6875 31.3512V32.8125C19.6875 33.5373 20.2751 34.125 21 34.125C21.7249 34.125 22.3125 33.5373 22.3125 32.8125V31.3512C24.9393 30.7525 26.9062 28.3993 26.9062 25.5938C26.9062 22.337 24.2567 19.6875 21 19.6875Z" fill="#202020"/>
</svg>
