<svg width="49" height="48" viewBox="0 0 49 48" fill="none" xmlns="http://www.w3.org/2000/svg">
<path d="M11.2291 13.9999H33.6875C34.2518 13.9999 34.7084 13.5527 34.7084 12.9999C34.7084 12.4472 34.2518 11.9999 33.6875 11.9999H11.2291C10.6649 11.9999 10.2083 12.4472 10.2083 12.9999C10.2084 13.5528 10.665 13.9999 11.2291 13.9999Z" fill="#202020"/>
<path d="M23.4791 23.9999H11.2291C10.6649 23.9999 10.2083 24.4472 10.2083 25C10.2083 25.5527 10.6649 26 11.2291 26H23.4791C24.0434 26 24.5 25.5527 24.5 25C24.5 24.4472 24.0434 23.9999 23.4791 23.9999Z" fill="#202020"/>
<path d="M45.0922 5.99997C45.033 5.99997 44.9757 6.0145 44.9167 6.01722V5.99997C44.9167 3.79394 43.0844 1.99994 40.8334 1.99994H4.08337C1.83233 1.99994 0 3.79394 0 5.99997V45C0 45.4043 0.249211 45.7695 0.630014 45.9238C0.755672 45.9755 0.889178 46 1.02077 46C1.28596 46 1.54714 45.8985 1.74256 45.707L11.6519 36H40.8334C43.0844 36 44.9167 34.2061 44.9167 31.9999V15.4135L47.8556 12.5351C47.8556 12.5351 47.8556 12.5351 47.8556 12.5342C48.5833 11.8213 49 10.8349 49 9.82806C49 7.71681 47.2475 5.99997 45.0922 5.99997ZM42.875 31.9999C42.875 33.1024 41.9598 33.9999 40.8334 33.9999H11.2291C10.958 33.9999 10.6987 34.1054 10.5073 34.2929L2.04163 42.5859V5.99997C2.04163 4.89747 2.95684 4 4.08327 4H40.8333C41.9599 4 42.875 4.89747 42.875 5.99997V6.68303C42.6812 6.81353 42.4958 6.95706 42.3287 7.12103L31.2214 18H11.2291C10.6649 18 10.2083 18.4473 10.2083 19C10.2083 19.5528 10.6649 20 11.2291 20H29.5836L28.6033 24.8038C28.5355 25.1319 28.6412 25.4708 28.8824 25.7071C29.0759 25.8965 29.337 26 29.6042 26C29.6701 26 29.7378 25.9932 29.8036 25.9805L34.9058 24.9805C35.1052 24.9414 35.2866 24.8467 35.4281 24.707L42.875 17.4133V31.9999ZM34.2039 23.0791L30.9062 23.7256L31.5661 20.4912L40.8329 11.4136L43.473 13.9998L34.2039 23.0791ZM46.412 11.1211L44.9166 12.5859L42.2763 9.99944L43.7721 8.53413C44.119 8.19522 44.5996 7.99994 45.0921 7.99994C46.1209 7.99994 46.9583 8.82025 46.9583 9.82806C46.9584 10.3085 46.7589 10.7803 46.412 11.1211Z" fill="#202020"/>
</svg>
