<svg width="35" height="35" viewBox="0 0 35 35" fill="none" xmlns="http://www.w3.org/2000/svg">
<g clip-path="url(#clip0_103:1790)">
<path d="M34.996 10.0157C34.9797 5.54903 31.3408 1.91992 26.8702 1.91992C24.5685 1.91992 22.419 2.8785 20.8939 4.53764C19.3689 2.87857 17.2194 1.91992 14.9177 1.91992C10.4472 1.91992 6.80827 5.54896 6.7919 10.0157C6.77676 10.3245 6.7621 11.8187 7.66671 14.0776C7.1632 13.9449 6.63861 13.8742 6.1025 13.8742C2.74737 13.8742 0.01616 16.5969 0.00218714 19.9488C-0.0243887 20.5994 0.0352014 26.3691 9.81414 32.7168L10.3735 33.08L10.9329 32.7168C14.5529 30.367 16.8401 28.0967 18.285 26.1356C18.9315 26.5977 19.6134 27.0632 20.3347 27.5314L20.8941 27.8946L21.4535 27.5314C35.0706 18.6922 35.0333 10.7747 34.996 10.0157ZM10.3735 30.6235C6.01914 27.6893 3.98767 25.0089 3.04683 23.2484C2.05003 21.3831 2.05215 20.1578 2.05462 20.0473L2.05688 19.9747C2.05688 17.744 3.87171 15.9291 6.10243 15.9291C7.48629 15.9291 8.75981 16.6254 9.509 17.7915L10.3733 19.1368L11.2377 17.7915C11.9871 16.6253 13.2606 15.9291 14.6444 15.9291C16.8752 15.9291 18.69 17.7439 18.69 19.9746L18.6874 20L18.6922 20.0461C18.6947 20.1496 18.7001 21.3768 17.7 23.2484C16.7593 25.0089 14.7278 27.6893 10.3735 30.6235ZM31.5482 14.7436C29.1602 19.2682 24.5474 23.0026 20.8939 25.4399C20.411 25.1177 19.9112 24.7722 19.402 24.4057C20.7491 21.9762 20.7585 20.2839 20.7448 19.9489C20.7308 16.5969 17.9996 13.8742 14.6445 13.8742C13.1315 13.8742 11.7064 14.4264 10.6066 15.3998C10.4796 15.1829 10.3563 14.9645 10.2398 14.7436C9.05947 12.5072 8.81084 10.7469 8.84399 10.1212L8.84666 10.0458C8.84666 6.69822 11.5701 3.97475 14.9177 3.97475C16.9943 3.97475 18.9053 5.01943 20.0297 6.76925L20.894 8.11455L21.7583 6.76925C22.8827 5.01943 24.7936 3.97475 26.8703 3.97475C30.2179 3.97475 32.9413 6.69822 32.9413 10.0458L32.9397 10.0753L32.944 10.1208C32.9773 10.746 32.7289 12.5066 31.5482 14.7436Z" fill="#3AD88F"/>
</g>
<defs>
<clipPath id="clip0_103:1790">
<rect width="35" height="35" fill="white"/>
</clipPath>
</defs>
</svg>
