<svg width="25" height="24" viewBox="0 0 25 24" fill="none" xmlns="http://www.w3.org/2000/svg">
<path d="M12.5001 3.97913C13.6051 3.97913 14.665 4.39835 15.4464 5.14458C16.2278 5.89082 16.6667 6.90292 16.6667 7.95825C16.6667 9.01358 16.2278 10.0257 15.4464 10.7719C14.665 11.5181 13.6051 11.9374 12.5001 11.9374C11.395 11.9374 10.3352 11.5181 9.5538 10.7719C8.7724 10.0257 8.33341 9.01358 8.33341 7.95825C8.33341 6.90292 8.7724 5.89082 9.5538 5.14458C10.3352 4.39835 11.395 3.97913 12.5001 3.97913ZM12.5001 5.96869C11.9475 5.96869 11.4176 6.1783 11.0269 6.55142C10.6362 6.92453 10.4167 7.43059 10.4167 7.95825C10.4167 8.48592 10.6362 8.99197 11.0269 9.36508C11.4176 9.7382 11.9475 9.94781 12.5001 9.94781C13.0526 9.94781 13.5825 9.7382 13.9732 9.36508C14.3639 8.99197 14.5834 8.48592 14.5834 7.95825C14.5834 7.43059 14.3639 6.92453 13.9732 6.55142C13.5825 6.1783 13.0526 5.96869 12.5001 5.96869ZM12.5001 12.9322C15.2813 12.9322 20.8334 14.2552 20.8334 16.9113V19.8956H4.16675V16.9113C4.16675 14.2552 9.71883 12.9322 12.5001 12.9322ZM12.5001 14.8222C9.40633 14.8222 6.14591 16.2746 6.14591 16.9113V18.0055H18.8542V16.9113C18.8542 16.2746 15.5938 14.8222 12.5001 14.8222Z" fill="#3AD88F"/>
</svg>
