<svg width="21" height="21" viewBox="0 0 21 21" fill="none" xmlns="http://www.w3.org/2000/svg">
<g clip-path="url(#clip0)">
<path d="M4.27914 13.9594C6.35042 16.4353 8.84379 18.3848 11.6896 19.7642C12.7731 20.2777 14.2222 20.8869 15.8365 20.9913C15.9366 20.9956 16.0324 21 16.1324 21C17.2159 21 18.0862 20.6258 18.7955 19.8556C18.7999 19.8512 18.8086 19.8425 18.8129 19.8338C19.0653 19.5292 19.3525 19.2551 19.6527 18.9635C19.8573 18.7677 20.0661 18.5632 20.2663 18.3543C21.1932 17.3883 21.1932 16.1612 20.2576 15.2257L17.6424 12.6104C17.1985 12.1492 16.6677 11.9055 16.1107 11.9055C15.5537 11.9055 15.0185 12.1492 14.5616 12.6061L13.0038 14.1639C12.8602 14.0812 12.7122 14.0073 12.573 13.9376C12.3989 13.8506 12.2379 13.7679 12.0943 13.6765C10.6757 12.7758 9.38772 11.6009 8.15627 10.091C7.53401 9.30336 7.11628 8.64194 6.82473 7.96747C7.23376 7.5976 7.61669 7.21032 7.98656 6.83174C8.1171 6.69685 8.252 6.56196 8.38689 6.42706C8.85685 5.95711 9.10923 5.41318 9.10923 4.86055C9.10923 4.30792 8.8612 3.76399 8.38689 3.29403L7.09017 1.99731C6.93787 1.84501 6.79427 1.69706 6.64632 1.54476C6.35913 1.24886 6.05888 0.94426 5.76298 0.67012C5.31478 0.230626 4.78826 0 4.23128 0C3.67865 0 3.14777 0.230626 2.68217 0.674472L1.05473 2.30191C0.462938 2.8937 0.127878 3.61169 0.0582552 4.44281C-0.0244219 5.4828 0.167041 6.58806 0.663104 7.92395C1.4246 9.99088 2.57338 11.9099 4.27914 13.9594ZM1.12 4.53419C1.17222 3.95545 1.39414 3.47244 1.81188 3.0547L3.43061 1.43597C3.683 1.19229 3.96149 1.0661 4.23128 1.0661C4.49671 1.0661 4.7665 1.19229 5.01453 1.44467C5.30608 1.71446 5.58022 1.99731 5.87612 2.29755C6.02407 2.44985 6.17637 2.60215 6.32867 2.75881L7.62539 4.05553C7.89518 4.32532 8.03443 4.59946 8.03443 4.86925C8.03443 5.13904 7.89518 5.41318 7.62539 5.68297C7.4905 5.81786 7.3556 5.95711 7.22071 6.092C6.81603 6.50104 6.43745 6.88831 6.01972 7.25818C6.01101 7.26689 6.00666 7.27124 5.99796 7.27994C5.63679 7.64111 5.69336 7.98487 5.78039 8.24596C5.78474 8.25901 5.78909 8.26772 5.79344 8.28077C6.1285 9.08578 6.5941 9.85164 7.32079 10.7654C8.62622 12.3755 10.0013 13.6243 11.5156 14.586C11.7027 14.7078 11.9028 14.8036 12.09 14.8993C12.264 14.9863 12.425 15.069 12.5686 15.1604C12.586 15.1691 12.5991 15.1778 12.6165 15.1865C12.7601 15.2605 12.8993 15.2953 13.0386 15.2953C13.3867 15.2953 13.613 15.0734 13.6869 14.9994L15.3144 13.3719C15.5668 13.1196 15.8409 12.9847 16.1107 12.9847C16.4414 12.9847 16.7112 13.1892 16.8809 13.3719L19.5048 15.9915C20.027 16.5137 20.0226 17.0794 19.4917 17.632C19.309 17.8278 19.1175 18.0149 18.913 18.2107C18.6084 18.5066 18.2907 18.8112 18.0036 19.155C17.5031 19.6946 16.907 19.947 16.1368 19.947C16.0628 19.947 15.9845 19.9426 15.9105 19.9383C14.4832 19.8469 13.1561 19.2899 12.1596 18.8156C9.45299 17.5058 7.07711 15.6477 5.10591 13.2893C3.48283 11.3355 2.39062 9.51658 1.66828 7.56714C1.22009 6.37049 1.05038 5.40883 1.12 4.53419Z" fill="#3AD88F"/>
</g>
<defs>
<clipPath id="clip0">
<rect width="21" height="21" fill="white"/>
</clipPath>
</defs>
</svg>
