<svg width="6" height="7" viewBox="0 0 6 7" fill="none" xmlns="http://www.w3.org/2000/svg">
<path d="M2.895 6.105C2.795 6.105 2.745 6.055 2.745 5.955V3.915C2.745 3.895 2.735 3.88 2.715 3.87C2.705 3.86 2.69 3.86 2.67 3.87L0.855 4.92C0.835 4.93 0.81 4.935 0.78 4.935C0.72 4.935 0.675 4.91 0.645 4.86L0.585 4.74C0.575 4.72 0.57 4.695 0.57 4.665C0.57 4.605 0.595 4.56 0.645 4.53L2.445 3.495C2.465 3.485 2.475 3.47 2.475 3.45C2.475 3.43 2.465 3.415 2.445 3.405L0.645 2.37C0.605 2.35 0.58 2.32 0.57 2.28C0.56 2.24 0.565 2.2 0.585 2.16L0.645 2.04C0.665 2 0.695 1.975 0.735 1.965C0.775 1.955 0.815 1.96 0.855 1.98L2.67 3.03C2.69 3.04 2.705 3.04 2.715 3.03C2.735 3.02 2.745 3.005 2.745 2.985V0.944999C2.745 0.844999 2.795 0.794999 2.895 0.794999H3.045C3.145 0.794999 3.195 0.844999 3.195 0.944999V2.985C3.195 3.005 3.2 3.02 3.21 3.03C3.23 3.04 3.25 3.04 3.27 3.03L5.1 1.98C5.12 1.97 5.145 1.965 5.175 1.965C5.235 1.965 5.28 1.99 5.31 2.04L5.37 2.16C5.38 2.18 5.385 2.205 5.385 2.235C5.385 2.295 5.36 2.34 5.31 2.37L3.495 3.405C3.485 3.415 3.48 3.43 3.48 3.45C3.48 3.47 3.485 3.485 3.495 3.495L5.31 4.53C5.35 4.55 5.375 4.58 5.385 4.62C5.395 4.66 5.39 4.7 5.37 4.74L5.31 4.86C5.29 4.9 5.26 4.925 5.22 4.935C5.18 4.945 5.14 4.94 5.1 4.92L3.27 3.87C3.25 3.86 3.23 3.86 3.21 3.87C3.2 3.88 3.195 3.895 3.195 3.915V5.955C3.195 6.055 3.145 6.105 3.045 6.105H2.895Z" fill="#FF0000"/>
</svg>
