<svg width="25" height="24" viewBox="0 0 25 24" fill="none" xmlns="http://www.w3.org/2000/svg">
<path d="M12.5 3.97913C13.6051 3.97913 14.6649 4.39835 15.4463 5.14458C16.2277 5.89082 16.6667 6.90292 16.6667 7.95825C16.6667 9.01358 16.2277 10.0257 15.4463 10.7719C14.6649 11.5181 13.6051 11.9374 12.5 11.9374C11.3949 11.9374 10.3351 11.5181 9.55373 10.7719C8.77232 10.0257 8.33334 9.01358 8.33334 7.95825C8.33334 6.90292 8.77232 5.89082 9.55373 5.14458C10.3351 4.39835 11.3949 3.97913 12.5 3.97913V3.97913ZM12.5 5.96869C11.9475 5.96869 11.4176 6.1783 11.0269 6.55142C10.6362 6.92453 10.4167 7.43059 10.4167 7.95825C10.4167 8.48592 10.6362 8.99197 11.0269 9.36508C11.4176 9.7382 11.9475 9.94781 12.5 9.94781C13.0525 9.94781 13.5824 9.7382 13.9731 9.36508C14.3638 8.99197 14.5833 8.48592 14.5833 7.95825C14.5833 7.43059 14.3638 6.92453 13.9731 6.55142C13.5824 6.1783 13.0525 5.96869 12.5 5.96869V5.96869ZM12.5 12.9322C15.2813 12.9322 20.8333 14.2552 20.8333 16.9113V19.8956H4.16667V16.9113C4.16667 14.2552 9.71875 12.9322 12.5 12.9322ZM12.5 14.8222C9.40625 14.8222 6.14584 16.2746 6.14584 16.9113V18.0055H18.8542V16.9113C18.8542 16.2746 15.5938 14.8222 12.5 14.8222V14.8222Z" fill="white"/>
</svg>
