<svg width="28" height="28" viewBox="0 0 28 28" fill="none" xmlns="http://www.w3.org/2000/svg">
<g clip-path="url(#clip0)">
<path d="M27.5677 2.78137C27.2257 2.3631 26.7134 2.13281 26.1251 2.13281C25.8053 2.13281 25.4665 2.2001 25.1183 2.33319L1.41679 11.3808C0.158979 11.8608 -0.0104236 12.5811 0.000471192 12.9678C0.011366 13.3544 0.221357 14.0641 1.50438 14.4723C1.51207 14.4747 1.51976 14.477 1.52745 14.4792L6.44377 15.8861L9.10252 23.4889C9.46504 24.5254 10.2787 25.1693 11.2264 25.1693C11.8239 25.1693 12.4115 24.9189 12.9259 24.4455L15.9669 21.6456L20.3775 25.1971C20.378 25.1975 20.3786 25.1977 20.379 25.1981L20.4209 25.2319C20.4248 25.2349 20.4288 25.2381 20.4327 25.2411C20.9229 25.6213 21.4581 25.8221 21.9808 25.8223H21.981C23.0023 25.8223 23.8156 25.0663 24.0525 23.8965L27.936 4.72086C28.0919 3.95117 27.9612 3.26245 27.5677 2.78137ZM8.08846 15.6188L17.5735 10.7732L11.6675 17.0488C11.5707 17.1516 11.5022 17.2774 11.4684 17.4143L10.3296 22.0273L8.08846 15.6188ZM11.8145 23.2386C11.7752 23.2747 11.7356 23.3069 11.6961 23.3366L12.7527 19.0573L14.6747 20.605L11.8145 23.2386ZM26.328 4.39508L22.4446 23.571C22.4072 23.7545 22.2878 24.1815 21.9808 24.1815C21.8291 24.1815 21.6386 24.0988 21.4435 23.9486L16.4456 19.9244C16.445 19.9238 16.4441 19.9231 16.4433 19.9227L13.4694 17.528L22.0103 8.45264C22.2837 8.16211 22.3085 7.71713 22.069 7.39798C21.8293 7.07883 21.395 6.97842 21.0398 7.16L6.99235 14.3365L2.00917 12.9107L25.7034 3.86594C25.9036 3.78946 26.0433 3.77344 26.1251 3.77344C26.1753 3.77344 26.2646 3.77942 26.2977 3.82022C26.3413 3.87341 26.3968 4.05478 26.328 4.39508Z" fill="#202020"/>
</g>
<defs>
<clipPath id="clip0">
<rect width="28" height="28" fill="white"/>
</clipPath>
</defs>
</svg>
